# xmcd
#
# Track frame offsets:
# 150
# 15618
# 35822
# 83405
# 97601
# 108111
# 125683
# 134883
# 147622
#
# Disc length: 2283 seconds
#
# Revision: 0
# Processed by: cddbd v1.5.2PL0 Copyright (c) Steve Scherf et al.
# Submitted via: Audion 3.0.2 (http://www.panic.com/audion/)
#
DISCID=7608e909
DTITLE=Hetero Skeleton - En La  Sombra Del Pajaro Velludo
DYEAR=1900
DGENRE=
TTITLE0=Part 1
TTITLE1=Part 2
TTITLE2=Part 3
TTITLE3=Part 4
TTITLE4=Part 5
TTITLE5=Part 6
TTITLE6=Part 7
TTITLE7=Part 8
TTITLE8=Part 9
EXTD=
EXTT0=
EXTT1=
EXTT2=
EXTT3=
EXTT4=
EXTT5=
EXTT6=
EXTT7=
EXTT8=
PLAYORDER=
